# xmcd
#
# Track frame offsets: 
#        150
#        17550
#        33409
#
# Disc length: 672 seconds
#
# Revision: 4
# Processed by: cddbd v1.5.2PL0 Copyright (c) Steve Scherf et al.
# Submitted via: ExactAudioCopyFreeDBPlugin 1.0
#
DISCID=18029e03
DTITLE=The XX - Teardrops
DYEAR=2009
DGENRE=Indie
TTITLE0=Do You Mind?
TTITLE1=Hot Like Fire
TTITLE2=Teardrops
EXTD=YEAR: 2009
EXTT0=
EXTT1=
EXTT2=
PLAYORDER=
